:SAMPLES-PER-SECOND 25
:FULLY-SPECIFIED
:DEGREES
688
root  3.82938 63.2391 -37.6095 -177.416 15.0975 175.851
RightUpLeg  -71.7864 2.372 -14.937
RightLeg  84.9643 0.68329 7.52108
RightFoot  -28.5803 0.788116 6.49701
RightToes  2.84633e-005 7.89722e-005 -0.000426369
Spine  15.375 -1.77519 4.58567
Spine1  31.0656 -4.68201 8.02818
HEad  7.20144 -16.7381 -11.6351
LeftShoulder1  -3.88251e-019 0 -3.92111e-022
LeftArm  -24.5609 -22.1952 -86.6462
LeftForeArm  20.3227 -12.6862 -1.78663
LeftHand  -1.0055 -7.02019 9.74077
RightShoulder  7.45443e-017 -2.42657e-020 1.96277e-018
RightArm  -20.9553 16.4353 58.169
RightForeArm  9.20257 14.8808 4.76018
RightHand  -2.13352 12.9375 -13.8346
LeftUpLeg  -64.5222 -8.23971 -3.13323
LeftLeg  90.6591 -0.657846 8.25386
LeftFoot  -33.9692 0.126712 -0.396089
LeftToes  3.91355e-005 3.11907e-005 -4.10385e-006
689
root  4.06481 61.7458 -37.8655 -178.292 14.7422 176.678
RightUpLeg  -74.4014 1.29471 -13.8743
RightLeg  91.3646 -0.221881 8.84625
RightFoot  -31.7572 1.03633 6.94981
RightToes  2.84633e-005 7.89722e-005 -0.000426369
Spine  15.5268 -1.67874 5.23824
Spine1  31.3761 -4.65532 9.24988
HEad  6.11998 -17.5842 -11.5075
LeftShoulder1  -3.88251e-019 0 -3.92111e-022
LeftArm  -24.9111 -22.3743 -86.2429
LeftForeArm  20.3738 -11.6271 -2.06956
LeftHand  -0.969422 -7.46227 9.08298
RightShoulder  7.45443e-017 -2.42657e-020 1.96277e-018
RightArm  -21.7593 16.4438 58.2062
RightForeArm  8.10712 13.9252 4.47951
RightHand  -2.23401 13.2161 -14.2503
LeftUpLeg  -66.7468 -6.03562 -2.65442
LeftLeg  97.4067 -1.19857 5.54976
LeftFoot  -37.5903 0.152985 -0.327628
LeftToes  3.91355e-005 3.11907e-005 -4.10385e-006
690
root  4.26983 60.2447 -38.1286 -178.978 14.882 177.865
RightUpLeg  -77.219 0.687859 -12.5199
RightLeg  97.2914 -1.31053 9.87631
RightFoot  -34.1001 1.15941 6.91274
RightToes  2.84633e-005 7.89722e-005 -0.000426369
Spine  15.6105 -1.46457 5.77117
Spine1  31.5639 -4.36024 10.179
HEad  5.39157 -17.7717 -11.0302
LeftShoulder1  -3.88251e-019 0 -3.92111e-022
LeftArm  -25.9136 -22.225 -85.0117
LeftForeArm  18.2492 -9.77243 -1.47975
LeftHand  -0.8917 -8.29649 7.92772
RightShoulder  7.45443e-017 -2.42657e-020 1.96277e-018
RightArm  -22.4326 16.7807 58.9178
RightForeArm  7.98771 11.9361 4.13812
RightHand  -2.31294 13.5133 -14.5115
LeftUpLeg  -69.028 -2.8392 -1.75315
LeftLeg  104.017 -0.849271 1.95581
LeftFoot  -41.4248 0.0638871 -0.694345
LeftToes  3.91355e-005 3.11907e-005 -4.10385e-006
691
root  4.44304 58.7433 -38.3498 179.916 15.2313 179.465
RightUpLeg  -79.6571 0.67464 -10.8733
RightLeg  102.813 -2.42318 10.3519
RightFoot  -35.37 1.18642 6.70526
RightToes  2.84633e-005 7.89722e-005 -0.000426369
Spine  15.8763 -1.36466 6.2874
Spine1  32.1072 -4.28441 10.9859
HEad  4.75112 -17.2561 -10.1114
LeftShoulder1  -3.88251e-019 0 -3.92111e-022
LeftArm  -27.0573 -21.6057 -83.3932
LeftForeArm  11.9319 -6.19524 -0.16713
LeftHand  -0.858829 -8.92378 7.3332
RightShoulder  7.45443e-017 -2.42657e-020 1.96277e-018
RightArm  -22.711 17.3083 59.7722
RightForeArm  7.9957 9.90444 3.96181
RightHand  -2.35103 13.2924 -14.9077
LeftUpLeg  -70.8051 0.988973 -0.326325
LeftLeg  110.315 0.428271 -1.78522
LeftFoot  -44.678 0.133961 -0.465662
LeftToes  3.91355e-005 3.11907e-005 -4.10385e-006
692
root  4.55803 57.2082 -38.6454 178.421 15.6895 -179.138
RightUpLeg  -81.7681 0.598544 -9.68631
RightLeg  108.326 -3.65353 10.7338
RightFoot  -36.673 1.17889 6.35764
RightToes  2.84633e-005 7.89722e-005 -0.000426369
Spine  16.3194 -1.62734 6.76181
Spine1  32.9783 -4.91539 11.6494
HEad  3.69425 -16.2462 -9.66169
LeftShoulder1  -3.88251e-019 0 -3.92111e-022
LeftArm  -28.3113 -20.5236 -81.1882
LeftForeArm  6.34386 -2.61927 0.542143
LeftHand  -0.963095 -8.04183 8.67307
RightShoulder  7.45443e-017 -2.42657e-020 1.96277e-018
RightArm  -22.1674 18.1274 60.2794
RightForeArm  8.59036 8.64763 3.94417
RightHand  -2.515 13.103 -16.0607
LeftUpLeg  -72.2887 4.74004 0.627877
LeftLeg  116.587 1.62051 -3.58562
LeftFoot  -46.8025 0.602947 0.991583
LeftToes  3.91355e-005 3.11907e-005 -4.10385e-006
693
root  4.65189 55.716 -38.8949 176.577 15.6346 -178.188
RightUpLeg  -83.5577 0.0654102 -9.10993
RightLeg  113.563 -4.87764 10.8971
RightFoot  -37.8292 1.09246 5.74038
RightToes  2.84633e-005 7.89722e-005 -0.000426369
Spine  16.8037 -1.89548 7.17362
Spine1  33.9232 -5.58244 12.2831
HEad  2.90771 -15.9535 -9.95043
LeftShoulder1  -3.88251e-019 0 -3.92111e-022
LeftArm  -28.8597 -20.1166 -79.3592
LeftForeArm  6.35458 1.20031 1.43246
LeftHand  -1.03004 -7.54994 9.57314
RightShoulder  7.45443e-017 -2.42657e-020 1.96277e-018
RightArm  -22.4397 18.5014 59.6523
RightForeArm  8.97809 7.61365 4.30099
RightHand  -2.50922 12.9876 -16.1183
LeftUpLeg  -74.1503 7.84252 0.123811
LeftLeg  122.344 0.582991 -1.42583
LeftFoot  -47.6659 0.689128 1.2074
LeftToes  3.91355e-005 3.11907e-005 -4.10385e-006
694
root  4.74236 54.2911 -39.1446 174.704 15.6205 -177.579
RightUpLeg  -85.4306 -0.482549 -9.04907
RightLeg  118.41 -6.29442 11.2886
RightFoot  -38.0376 0.929095 5.00978
RightToes  2.84633e-005 7.89722e-005 -0.000426369
Spine  17.2211 -1.94482 7.6003
Spine1  34.7355 -5.86844 13.0626
HEad  2.89139 -16.2131 -10.4686
LeftShoulder1  -3.88251e-019 0 -3.92111e-022
LeftArm  -29.2596 -19.769 -78.3531
LeftForeArm  8.53222 2.41513 1.94869
LeftHand  -0.891617 -7.59057 8.31203
RightShoulder  7.45443e-017 -2.42657e-020 1.96277e-018
RightArm  -22.4192 18.0657 58.3234
RightForeArm  10.2657 7.06822 4.45816
RightHand  -2.59072 12.769 -16.8178
LeftUpLeg  -76.4755 10.6807 -1.92544
LeftLeg  127.196 -3.69576 4.02543
LeftFoot  -48.2683 0.627072 0.989707
LeftToes  3.91355e-005 3.11907e-005 -4.10385e-006
